<svg width="121" height="49" fill="none" xmlns="http://www.w3.org/2000/svg"><g clip-path="url(#a)"><path d="M15.676 10.611C7.148 10.611.041 14.23.041 25.146c0 8.648 4.778 14.094 15.856 14.094 13.038 0 13.874-8.589 13.874-8.589h-6.318s-1.355 4.625-7.942 4.625c-5.365 0-9.224-3.624-9.224-8.704h24.144v-3.188c0-5.026-3.19-12.773-14.755-12.773Zm-.22 4.074c5.107 0 8.589 3.129 8.589 7.818H6.427c0-4.978 4.544-7.818 9.03-7.818Z" fill="#E53238"/><path d="M30.427.04v33.718c0 1.914-.137 4.601-.137 4.601h6.026s.216-1.93.216-3.694c0 0 2.977 4.657 11.072 4.657 8.524 0 14.315-5.918 14.315-14.397 0-7.887-5.319-14.231-14.301-14.231-8.411 0-11.025 4.542-11.025 4.542V.04h-6.166Zm15.635 14.824c5.79 0 9.47 4.296 9.47 10.061 0 6.183-4.251 10.227-9.428 10.227-6.178 0-9.511-4.824-9.511-10.172 0-4.982 2.99-10.116 9.47-10.116Z" fill="#0064D2"/><path d="M76.894 10.611c-12.831 0-13.654 7.026-13.654 8.148h6.386s.335-4.101 6.827-4.101c4.219 0 7.488 1.93 7.488 5.643v1.321h-7.488c-9.94 0-15.195 2.908-15.195 8.81 0 5.807 4.855 8.966 11.417 8.966 8.943 0 11.823-4.94 11.823-4.94 0 1.964.152 3.901.152 3.901h5.677s-.22-2.4-.22-3.936V21.147c0-8.704-7.021-10.536-13.213-10.536Zm7.047 14.975v1.762c0 2.298-1.418 8.01-9.766 8.01-4.57 0-6.53-2.28-6.53-4.927 0-4.814 6.6-4.845 16.296-4.845Z" fill="#F5AF02"/><path d="M86.668 11.713h7.185l10.311 20.658 10.287-20.658h6.509L102.221 48.49h-6.827l5.408-10.252-14.134-26.525Z" fill="#86B817"/></g><defs><clipPath id="a"><path fill="#fff" d="M0 0h121v48.531H0z"/></clipPath></defs></svg>