<svg width="32" height="31" fill="none" xmlns="http://www.w3.org/2000/svg"><g clip-path="url(#a)" fill-rule="evenodd" clip-rule="evenodd" fill="#2F294D"><path d="M7 28a2 2 0 1 1 4 0 2 2 0 0 1-4 0ZM18 28a2 2 0 1 1 4 0 2 2 0 0 1-4 0ZM0 8a1 1 0 0 1 1-1h4a1 1 0 0 1 .98.804L6.82 12H23a1 1 0 0 1 .982 1.187l-1.601 8.398A3 3 0 0 1 19.39 24H9.69a3 3 0 0 1-2.99-2.414l-1.67-8.347a.997.997 0 0 1-.017-.084L4.18 9H1a1 1 0 0 1-1-1Zm7.22 6 1.44 7.195a1 1 0 0 0 1 .805h9.76a1 1 0 0 0 .998-.802L21.792 14H7.221Z"/></g><circle cx="23.5" cy="8.5" r="7.5" fill="#0064D2" stroke="#fff" stroke-width="2"/><path d="M23.53 12a.448.448 0 0 1-.462-.451V5.29l.132.154-1.243.858a.43.43 0 0 1-.253.077.435.435 0 0 1-.319-.132.46.46 0 0 1-.132-.319c0-.161.077-.29.231-.385l1.749-1.155a.613.613 0 0 1 .176-.077.476.476 0 0 1 .176-.011c.132 0 .235.044.308.132.08.08.121.183.121.308v6.809a.419.419 0 0 1-.143.319.462.462 0 0 1-.341.132Z" fill="#fff"/><defs><clipPath id="a"><path fill="#fff" transform="translate(0 7)" d="M0 0h24v24H0z"/></clipPath></defs></svg>