<svg width="28" height="30" fill="none" xmlns="http://www.w3.org/2000/svg"><path fill-rule="evenodd" clip-rule="evenodd" d="M4.95 8.481a6.4 6.4 0 0 1 6.988 1.393l.003.003.059.06.058-.06.004-.003a6.4 6.4 0 0 1 9.066 0c2.545 2.545 2.601 6.754-.415 9.827l-.006.006-8 8a1 1 0 0 1-1.414 0l-8.007-8.006C.27 16.628.327 12.419 2.872 9.873a6.4 6.4 0 0 1 2.079-1.392Zm2.455 1.51a4.4 4.4 0 0 0-3.117 1.295l-.001.001c-1.694 1.694-1.897 4.642.423 7.01L12 25.585l7.29-7.29c2.32-2.367 2.116-5.315.423-7.009l-.002-.001a4.4 4.4 0 0 0-6.231-.002l-.002.002-.767.777a1 1 0 0 1-1.423 0l-.767-.777-.001-.002a4.401 4.401 0 0 0-3.115-1.292Z" fill="#2F294D"/><circle cx="19.5" cy="8.5" r="7.5" fill="#0064D2" stroke="#fff" stroke-width="2"/><path d="M20.125 12a.435.435 0 0 1-.319-.132.455.455 0 0 1-.121-.319V5.532l.176.066-2.629 3.432-.044-.132h4.114c.117 0 .216.04.297.121.08.08.121.18.121.297a.39.39 0 0 1-.121.286.425.425 0 0 1-.297.11h-4.719a.447.447 0 0 1-.308-.132.422.422 0 0 1-.132-.308c0-.11.037-.205.11-.286l3.509-4.51a.374.374 0 0 1 .176-.132.484.484 0 0 1 .198-.044.4.4 0 0 1 .308.132c.08.08.121.183.121.308v6.809a.435.435 0 0 1-.132.319.4.4 0 0 1-.308.132Z" fill="#fff"/></svg>